<svg width="96" height="96" xmlns="http://www.w3.org/2000/svg" xmlns:xlink="http://www.w3.org/1999/xlink" xml:space="preserve" overflow="hidden"><defs><clipPath id="clip0"><rect x="384" y="390" width="96" height="96"/></clipPath></defs><g clip-path="url(#clip0)" transform="translate(-384 -390)"><path d="M394 479 422 479 422 465 394 465ZM396 467 420 467 420 477 396 477Z"/><path d="M442 465 442 479 470 479 470 465ZM468 477 444 477 444 467 468 467Z"/><path d="M441.414 442 455 442 455 459.562C455 459.575 454.992 459.578 454.983 459.569L450.707 455.293C450.31 454.909 449.677 454.92 449.293 455.318 448.919 455.705 448.919 456.32 449.293 456.707L455.293 462.707C455.684 463.097 456.316 463.097 456.707 462.707L462.707 456.707C463.091 456.31 463.08 455.677 462.682 455.293 462.295 454.919 461.68 454.919 461.293 455.293L457.017 459.569C457.008 459.578 457 459.575 457 459.562L457 440 441.414 440 432 430.586 422.586 440 407 440 407 459.562C407 459.575 406.992 459.578 406.983 459.569L402.707 455.293C402.31 454.909 401.677 454.92 401.293 455.318 400.919 455.705 400.919 456.32 401.293 456.707L407.293 462.707C407.684 463.097 408.316 463.097 408.707 462.707L414.707 456.707C415.104 456.323 415.115 455.69 414.732 455.293 414.348 454.896 413.715 454.885 413.318 455.268 413.309 455.276 413.301 455.285 413.293 455.293L409.017 459.569C409.008 459.578 409 459.575 409 459.562L409 442 422.586 442 432 451.414ZM432 433.414 439.586 441 432 448.586 424.414 441Z"/><path d="M431 425.137C431 425.15 430.992 425.153 430.983 425.144L426.707 420.868C426.323 420.471 425.69 420.46 425.293 420.843 424.896 421.227 424.885 421.86 425.268 422.257 425.276 422.266 425.285 422.274 425.293 422.282L431.293 428.282C431.684 428.672 432.316 428.672 432.707 428.282L438.707 422.282C439.104 421.898 439.115 421.265 438.732 420.868 438.348 420.471 437.715 420.46 437.318 420.843 437.309 420.852 437.301 420.86 437.293 420.868L433.017 425.144C433.008 425.153 433 425.15 433 425.137L433 411 446 411 446 397 418 397 418 411 431 411ZM420 399 444 399 444 409 420 409Z"/></g></svg>