<svg width="96" height="96" xmlns="http://www.w3.org/2000/svg" xmlns:xlink="http://www.w3.org/1999/xlink" xml:space="preserve" overflow="hidden"><defs><clipPath id="clip0"><rect x="147" y="141" width="96" height="96"/></clipPath></defs><g clip-path="url(#clip0)" transform="translate(-147 -141)"><path d="M189.475 155.37 167.336 208.882 166.571 210.73 168.419 211.495 197.936 223.706 199.784 224.471 200.549 222.623 222.688 169.11 223.452 167.262 221.6 166.5 192.087 154.286 190.239 153.521ZM220.839 168.346 198.7 221.858 169.184 209.647 191.323 156.134Z"/><path d="M230.032 159.182 191.29 143.154C191.05 143.053 190.793 143.001 190.533 143 189.723 142.998 188.993 143.485 188.682 144.232L158.909 216.2C158.49 217.219 158.973 218.385 159.99 218.808L198.732 234.838C198.972 234.937 199.23 234.988 199.49 234.988 200.299 234.989 201.03 234.503 201.34 233.755L231.113 161.791C231.533 160.772 231.05 159.605 230.032 159.182ZM199.5 232.989 160.757 216.966 190.533 145 190.533 145 229.265 161.026Z"/><path d="M204.3 156.1 212.6 159.535C213.114 159.737 213.695 159.484 213.897 158.97 214.094 158.469 213.858 157.901 213.364 157.687L205.064 154.252C204.55 154.05 203.969 154.303 203.767 154.817 203.57 155.318 203.806 155.886 204.3 156.1Z"/><path d="M225.765 195.711 231.363 191.951 229.915 184.684 227.954 185.074 229.142 191.034 223.543 194.794 224.862 201.408 219.264 205.168 220.582 211.782 215.537 215.171 216.652 216.831 222.804 212.699 221.485 206.085 227.083 202.325 225.765 195.711Z"/><path d="M159.785 193.371 161.747 192.98 160.559 187.021 166.156 183.26 164.838 176.647 170.436 172.886 169.118 166.273 174.163 162.884 173.047 161.224 166.896 165.356 168.214 171.969 162.617 175.73 163.935 182.343 158.337 186.104 159.785 193.371Z"/></g></svg>