<svg width="96" height="96" xmlns="http://www.w3.org/2000/svg" xmlns:xlink="http://www.w3.org/1999/xlink" xml:space="preserve" overflow="hidden"><defs><clipPath id="clip0"><rect x="98" y="224" width="96" height="96"/></clipPath></defs><g clip-path="url(#clip0)" transform="translate(-98 -224)"><path d="M182 238 110 238C107.794 238.007 106.007 239.794 106 242L106 290.015C106.007 292.221 107.794 294.008 110 294.015L139 294.015 139 304.015 128 304.015 128 306.015 164 306.015 164 304.015 153 304.015 153 294.015 182 294.015C184.206 294.008 185.993 292.221 186 290.015L186 242C185.993 239.794 184.206 238.007 182 238ZM151 304.019 141 304.019 141 294.019 151 294.019ZM184 290.019C184 291.124 183.105 292.019 182 292.019L110 292.019C108.895 292.019 108 291.124 108 290.019L108 242C108 240.895 108.895 240 110 240L182 240C183.105 240 184 240.895 184 242Z"/><path d="M113 243 111 243 111 289.014 181 289.014 181 243 113 243ZM179 287.014 113 287.014 113 245 179 245Z"/></g></svg>