<svg width="96" height="96" xmlns="http://www.w3.org/2000/svg" xmlns:xlink="http://www.w3.org/1999/xlink" xml:space="preserve" overflow="hidden"><defs><clipPath id="clip0"><rect x="94" y="384" width="96" height="96"/></clipPath></defs><g clip-path="url(#clip0)" transform="translate(-94 -384)"><path d="M142 400C149.732 400 156 406.268 156 414 156 421.732 149.732 428 142 428 134.268 428 128 421.732 128 414 128.008 406.271 134.271 400.008 142 400M142 398C133.163 398 126 405.163 126 414 126 422.837 133.163 430 142 430 150.837 430 158 422.837 158 414 158 405.163 150.837 398 142 398Z"/><path d="M174 466 172 466 172 450.5C171.952 448.376 170.952 446.386 169.275 445.081 164.889 441.716 159.868 439.273 154.513 437.9 150.459 436.652 146.242 436.012 142 436 137.759 436.074 133.548 436.713 129.476 437.9 124.177 439.452 119.178 441.886 114.688 445.1 113.028 446.406 112.042 448.388 112 450.5L112 466 110 466 110 450.5C110.05 447.769 111.326 445.205 113.476 443.519 118.167 440.151 123.395 437.601 128.937 435.977 133.184 434.74 137.577 434.075 142 434 146.432 434.011 150.838 434.678 155.075 435.979 160.685 437.424 165.943 439.991 170.533 443.525 172.678 445.211 173.952 447.772 174 450.5Z"/></g></svg>